<?xml version="1.0" encoding="utf-8"?>
<!-- Generator: Adobe Illustrator 17.0.0, SVG Export Plug-In . SVG Version: 6.00 Build 0)  -->
<!DOCTYPE svg PUBLIC "-//W3C//DTD SVG 1.1//EN" "http://www.w3.org/Graphics/SVG/1.1/DTD/svg11.dtd">
<svg version="1.1" id="图层_1" xmlns="http://www.w3.org/2000/svg" xmlns:xlink="http://www.w3.org/1999/xlink" x="0px" y="0px"
	 width="200px" height="47.036px" viewBox="0 0 200 47.036" enable-background="new 0 0 200 47.036" xml:space="preserve">
<path fill="#040000" d="M194.139,24.491v-1.683c0-0.095-0.077-0.172-0.172-0.172h-20.636c-0.095,0-0.172,0.077-0.172,0.172v1.683
	c0,0.095,0.077,0.172,0.172,0.172h20.636C194.062,24.664,194.139,24.586,194.139,24.491"/>
<path fill="#040000" d="M162.897,6.313c0.026,0.066,0.089,0.109,0.16,0.109h2.284c0.003,0.001,0.005,0.001,0.005,0.001
	c0.097-0.001,0.173-0.077,0.173-0.172c0-0.032-0.008-0.062-0.023-0.088c-0.39-1.5-1.009-2.91-1.945-4.829
	c-0.03-0.06-0.075-0.099-0.159-0.096l-2.465,0.06c-0.059,0.002-0.113,0.033-0.143,0.084c-0.031,0.051-0.033,0.113-0.006,0.166
	C161.671,3.298,161.996,3.995,162.897,6.313"/>
<path fill="#040000" d="M167.865,7.726h-10.299c-0.076-1.147-0.161-6.001-0.161-6.898c0-0.095-0.077-0.172-0.172-0.172h-2.71
	c-0.095,0-0.172,0.077-0.172,0.172c0,2.499,0.074,4.758,0.227,6.898h-6.067c-0.095,0-0.171,0.077-0.171,0.172v1.647
	c0,0.095,0.076,0.172,0.171,0.172h6.211c0.243,3.544,0.686,6.589,1.317,9.051c1.535,6.102,4.205,9.195,7.936,9.195
	c0.059,0,0.119,0,0.178-0.002c2.606-0.069,3.82-1.512,3.82-4.54c0-0.094-0.076-0.17-0.17-0.171l-2.3-0.023
	c-0.044-0.003-0.09,0.017-0.122,0.05c-0.033,0.032-0.051,0.076-0.051,0.122c0,1.721-0.466,2.055-1.384,2.091
	c-2.298,0.098-3.898-2.092-4.929-6.686c-0.624-2.589-1.063-5.645-1.305-9.087h10.153c0.095,0,0.172-0.077,0.172-0.172V7.898
	C168.037,7.803,167.96,7.726,167.865,7.726"/>
<path fill="#040000" d="M149.126,0.728c-0.033-0.04-0.082-0.064-0.134-0.064h-2.765c-0.084,0-0.155,0.061-0.169,0.144
	c-0.709,4.243-2.784,7.41-6.169,9.414c-0.052,0.031-0.084,0.087-0.084,0.148v2.223c0,0.058,0.029,0.113,0.078,0.144
	c0.049,0.032,0.11,0.037,0.163,0.014c1.379-0.608,2.794-1.609,3.605-2.369l-0.013,17.73c0,0.045,0.019,0.089,0.051,0.121
	c0.032,0.032,0.076,0.051,0.121,0.051h2.524c0.095,0,0.172-0.077,0.172-0.172l0.013-20.374c1.361-1.891,2.187-4.773,2.641-6.866
	C149.171,0.822,149.158,0.769,149.126,0.728"/>
<path fill="#040000" d="M189.727,10.389l6.621-0.001c0.158,0.011,0.311,0.016,0.459,0.016c1.09,0,1.913-0.288,2.445-0.857
	c0.557-0.597,0.799-1.509,0.718-2.698v-4.33c0-0.095-0.076-0.171-0.171-0.171h-10.072c-0.095,0-0.172,0.076-0.172,0.171v7.698
	C189.555,10.312,189.632,10.389,189.727,10.389 M197.417,6.729c0,1.26-0.466,1.873-1.425,1.873h-3.882V4.255h5.307V6.729z"/>
<path fill="#040000" d="M173.704,11.938c4.233-1.833,6.535-4.417,6.845-7.683h3.724l0.001,3.326
	c0.035,0.567-0.073,0.987-0.321,1.252c-0.235,0.251-0.614,0.378-1.126,0.378c-0.069,0-0.14-0.003-0.224-0.007h-1.474
	c-0.095,0-0.172,0.076-0.172,0.171v1.564c0,0.095,0.077,0.171,0.172,0.171h2.082c1.327,0.046,2.312-0.261,2.936-0.906
	c0.573-0.594,0.844-1.482,0.804-2.633V2.399c0-0.095-0.077-0.172-0.172-0.172h-6.093V0.474c0-0.094-0.077-0.171-0.172-0.171h-2.211
	c-0.094,0-0.171,0.077-0.171,0.171v1.753h-4.25c-0.095,0-0.172,0.077-0.172,0.172v1.684c0,0.095,0.077,0.172,0.172,0.172h4.106
	c-0.299,2.257-1.792,4.212-4.441,5.815c-0.051,0.031-0.083,0.087-0.083,0.147v1.563c0,0.058,0.029,0.112,0.078,0.144
	c0.028,0.019,0.061,0.028,0.094,0.028C173.658,11.952,173.681,11.948,173.704,11.938"/>
<path fill="#040000" d="M199.789,25.214v-6.615c0-0.095-0.077-0.172-0.172-0.172h-3.758v-2.225h-0.001v-0.526
	c0.005-0.853-0.173-1.435-0.607-1.89c-0.489-0.512-1.279-0.772-2.348-0.772h-2.186h-0.401h-14.528c-0.095,0-0.172,0.077-0.172,0.172
	v1.564c0,0.095,0.077,0.172,0.172,0.172h14.528v0.008h1.382c0.488,0,0.858,0.096,1.043,0.334c0.166,0.214,0.195,0.487,0.195,0.938
	v0.574v1.651h-11.509c-0.637,0.04-1.103-0.083-1.368-0.367c-0.229-0.244-0.327-0.626-0.292-1.145v-1.444
	c0-0.095-0.077-0.171-0.172-0.171h-2.456c-0.095,0-0.172,0.076-0.172,0.171l0.001,1.91c-0.076,0.879,0.115,1.575,0.567,2.067
	c0.544,0.591,1.47,0.891,2.755,0.891c0.095,0,0.193-0.002,0.288-0.005h16.288l0.001,4.891c0.034,0.508-0.065,0.889-0.293,1.133
	c-0.233,0.249-0.618,0.375-1.144,0.375c-0.072,0-0.147-0.002-0.235-0.007h-3.438c-0.095,0-0.172,0.077-0.172,0.172v1.563
	c0,0.095,0.077,0.172,0.172,0.172h3.803c0.098,0.003,0.195,0.004,0.291,0.004c1.513,0,2.607-0.351,3.25-1.043
	C199.631,27.024,199.863,26.219,199.789,25.214"/>
<path fill="#040000" d="M74.319,8.669c-0.019-0.013-0.041-0.018-0.061-0.018c-0.031,0-0.06,0.012-0.082,0.036l-1.356,1.55
	c-0.021,0.023-0.03,0.053-0.028,0.084c0.002,0.031,0.019,0.057,0.044,0.077c1.072,0.798,2.553,2.052,4.525,3.836
	c0.021,0.019,0.049,0.029,0.074,0.029c0.028,0,0.059-0.014,0.082-0.037c0.417-0.458,0.934-1.023,1.574-1.735
	c0.02-0.021,0.03-0.05,0.026-0.08c-0.001-0.029-0.015-0.057-0.037-0.077C77.196,10.772,75.592,9.538,74.319,8.669"/>
<path fill="#040000" d="M78.362,17.38c-0.719-0.241-1.45-0.54-2.182-0.891c-0.014-0.007-0.031-0.01-0.047-0.01
	c-0.016,0-0.033,0.003-0.049,0.01c-0.029,0.016-0.053,0.043-0.058,0.077c-0.829,4.079-1.705,7.567-2.603,10.366
	c-0.009,0.028-0.004,0.059,0.007,0.086c0.013,0.026,0.038,0.044,0.066,0.054l2.388,0.702c0.009,0.005,0.021,0.005,0.032,0.005
	c0.018,0,0.037-0.005,0.056-0.014c0.025-0.015,0.045-0.042,0.05-0.07c0.977-4.18,1.742-7.416,2.412-10.185
	C78.447,17.454,78.416,17.398,78.362,17.38"/>
<path fill="#040000" d="M75.384,1.47c-0.018-0.016-0.043-0.024-0.068-0.024c-0.03,0-0.059,0.011-0.08,0.036l-1.38,1.488
	c-0.021,0.022-0.032,0.052-0.029,0.083c0.001,0.029,0.016,0.057,0.04,0.077c1.454,1.2,2.838,2.499,4.112,3.859
	C78,7.012,78.028,7.025,78.06,7.025c0.03,0,0.06-0.013,0.081-0.036l1.575-1.676c0.018-0.022,0.031-0.051,0.028-0.079
	c0-0.03-0.014-0.058-0.036-0.078C77.959,3.58,76.547,2.374,75.384,1.47"/>
<path fill="#040000" d="M101.418,3.244h-9.194l-0.006-3.106c0-0.061-0.051-0.11-0.112-0.11h-2.544c-0.027,0-0.055,0.012-0.077,0.034
	c-0.018,0.019-0.032,0.047-0.032,0.077l0.007,3.105H80.2c-0.059,0-0.108,0.048-0.108,0.109v1.594c0,0.061,0.049,0.11,0.108,0.11
	h3.929c0.133,0.323,0.281,0.721,0.439,1.14c0.303,0.814,0.644,1.73,1.038,2.578h-2.225c-1.621-0.038-2.341,0.593-2.317,2.405v16.804
	c0,0.061,0.049,0.11,0.11,0.11h2.302c0.06,0,0.109-0.049,0.109-0.11V11.62c0.015-0.663,0.278-0.936,0.939-0.945h5.023v2.659h-4.619
	c-0.061,0-0.11,0.047-0.11,0.11v1.445c0,0.06,0.049,0.11,0.11,0.11h4.619v2.823h-3.579c-0.062,0-0.111,0.05-0.111,0.11v6.881
	c0,0.06,0.049,0.11,0.111,0.11h6.922c0.196,0.007,0.371,0.011,0.534,0.011c0.98,0,1.52-0.148,1.871-0.513
	c0.364-0.376,0.502-0.984,0.463-2.026v-4.463c0-0.06-0.049-0.11-0.11-0.11h-3.697v-2.823h4.737c0.062,0,0.11-0.05,0.11-0.11v-1.445
	c0-0.063-0.048-0.11-0.11-0.11h-4.737v-2.659h5.032c0.775-0.001,0.965,0.408,0.93,1.211v13.091c0,0.751-0.6,0.909-1.105,0.909h-2.79
	c-0.029,0-0.056,0.013-0.076,0.033c-0.021,0.02-0.03,0.049-0.03,0.078l0.007,1.818c0,0.06,0.049,0.11,0.109,0.11h3.719
	c1.763,0,2.658-0.847,2.658-2.514l0.03-14.107c0.021-1.794-0.531-2.551-2.677-2.529h-1.856c0.509-0.991,0.942-2.219,1.292-3.215
	c0.063-0.175,0.122-0.344,0.178-0.503h4.045c0.062,0,0.11-0.049,0.11-0.11V3.353C101.528,3.292,101.48,3.244,101.418,3.244
	 M94.7,5.057c-0.228,0.535-0.844,2.103-1.232,3.087c-0.11,0.281-0.2,0.506-0.25,0.631h-4.82c-0.076-0.187-0.279-0.646-0.576-1.322
	c-0.39-0.883-0.864-1.957-1.035-2.396H94.7z M88.27,23.382V19.59h5.073v2.583c-0.02,1.159-0.037,1.16-1.047,1.202l-0.153,0.007
	H88.27z"/>
<path fill="#040000" d="M106.965,8.669c-0.018-0.013-0.041-0.018-0.061-0.018c-0.031,0-0.06,0.012-0.082,0.036l-1.356,1.55
	c-0.021,0.023-0.03,0.053-0.028,0.084c0.002,0.031,0.019,0.057,0.044,0.077c1.072,0.798,2.553,2.052,4.525,3.836
	c0.021,0.019,0.048,0.029,0.074,0.029c0.028,0,0.059-0.014,0.081-0.037c0.418-0.458,0.935-1.023,1.575-1.735
	c0.02-0.021,0.03-0.05,0.026-0.08c-0.001-0.029-0.015-0.057-0.037-0.077C109.842,10.772,108.238,9.538,106.965,8.669"/>
<path fill="#040000" d="M111.008,17.38c-0.719-0.241-1.45-0.54-2.182-0.891c-0.014-0.007-0.031-0.01-0.047-0.01
	c-0.016,0-0.033,0.003-0.049,0.01c-0.029,0.016-0.052,0.043-0.058,0.077c-0.829,4.079-1.705,7.567-2.603,10.366
	c-0.009,0.028-0.004,0.059,0.007,0.086c0.013,0.026,0.039,0.044,0.066,0.054l2.388,0.702c0.009,0.005,0.021,0.005,0.032,0.005
	c0.018,0,0.037-0.005,0.056-0.014c0.026-0.015,0.044-0.042,0.05-0.07c0.977-4.18,1.742-7.416,2.413-10.185
	C111.093,17.454,111.062,17.398,111.008,17.38"/>
<path fill="#040000" d="M108.029,1.47c-0.018-0.016-0.043-0.024-0.068-0.024c-0.03,0-0.06,0.011-0.08,0.036l-1.38,1.488
	c-0.021,0.022-0.032,0.052-0.029,0.083c0.001,0.029,0.016,0.057,0.04,0.077c1.454,1.2,2.838,2.499,4.112,3.859
	c0.021,0.023,0.049,0.036,0.081,0.036c0.03,0,0.06-0.013,0.081-0.036l1.575-1.676c0.018-0.022,0.031-0.051,0.027-0.079
	c0-0.03-0.013-0.058-0.036-0.078C110.604,3.58,109.192,2.374,108.029,1.47"/>
<path fill="#040000" d="M134.063,3.244h-9.194l-0.006-3.106c0-0.061-0.051-0.11-0.112-0.11h-2.544c-0.027,0-0.055,0.012-0.078,0.034
	c-0.018,0.019-0.031,0.047-0.031,0.077l0.007,3.105h-9.259c-0.059,0-0.108,0.048-0.108,0.109v1.594c0,0.061,0.049,0.11,0.108,0.11
	h3.929c0.132,0.323,0.281,0.721,0.439,1.14c0.303,0.814,0.644,1.73,1.038,2.578h-2.225c-1.622-0.038-2.341,0.593-2.317,2.405v16.804
	c0,0.061,0.049,0.11,0.11,0.11h2.302c0.059,0,0.109-0.049,0.109-0.11V11.62c0.015-0.663,0.278-0.936,0.939-0.945h5.023v2.659h-4.619
	c-0.061,0-0.11,0.047-0.11,0.11v1.445c0,0.06,0.049,0.11,0.11,0.11h4.619v2.823h-3.579c-0.062,0-0.111,0.05-0.111,0.11v6.881
	c0,0.06,0.049,0.11,0.111,0.11h6.922c0.196,0.007,0.37,0.011,0.534,0.011c0.98,0,1.52-0.148,1.871-0.513
	c0.364-0.376,0.502-0.984,0.463-2.026v-4.463c0-0.06-0.049-0.11-0.11-0.11h-3.697v-2.823h4.737c0.062,0,0.11-0.05,0.11-0.11v-1.445
	c0-0.063-0.048-0.11-0.11-0.11h-4.737v-2.659h5.032c0.774-0.001,0.965,0.408,0.929,1.211v13.091c0,0.751-0.599,0.909-1.104,0.909
	h-2.789c-0.03,0-0.057,0.013-0.077,0.033c-0.021,0.02-0.031,0.049-0.031,0.078l0.008,1.818c0,0.06,0.049,0.11,0.109,0.11h3.719
	c1.763,0,2.658-0.847,2.658-2.514l0.03-14.107c0.02-1.794-0.531-2.551-2.678-2.529h-1.855c0.509-0.991,0.942-2.219,1.292-3.215
	c0.062-0.175,0.122-0.344,0.178-0.503h4.045c0.062,0,0.11-0.049,0.11-0.11V3.353C134.173,3.292,134.125,3.244,134.063,3.244
	 M127.346,5.057c-0.227,0.535-0.844,2.103-1.232,3.087c-0.11,0.281-0.2,0.506-0.25,0.631h-4.82
	c-0.076-0.187-0.279-0.646-0.577-1.322c-0.389-0.883-0.863-1.957-1.035-2.396H127.346z M120.915,23.382V19.59h5.073v2.583
	c-0.02,1.159-0.037,1.16-1.047,1.202l-0.153,0.007H120.915z"/>
<path fill="#040000" d="M146.787,36.365v-0.69h10.744v0.69h-4.83v1.232h3.943v3.302c0.031,1.052-0.444,1.56-1.43,1.527h-2.566
	c-0.189,1.33-1.119,2.02-1.119,2.02s2.901,1.343,6.149,1.196v0.776c-3.187-0.132-5.519-0.707-6.997-1.429
	c-0.888,0.459-2.186,0.936-3.894,1.429v-0.713c1.669-0.398,3.074-1.173,3.074-1.173s-1.333-1.038-1.792-1.465h1.38
	c0.621,0.626,1.182,0.887,1.182,0.887s0.781-0.638,0.838-1.528h-3.794v-4.829h3.942v-1.232H146.787z M148.66,39.667h2.957v-1.38
	h-2.957V39.667z M148.66,41.785h2.907c0.032-0.196,0.05-1.478,0.05-1.478h-2.957V41.785z M152.652,41.785h2.168
	c0.591,0,0.87-0.311,0.838-0.936v-0.542h-2.957L152.652,41.785z M155.658,38.287h-2.957v1.38h2.957V38.287z"/>
<path fill="#040000" d="M129.566,37.902v-0.726h2.856l0.775-1.501h1.161l-0.822,1.501h6.583v0.726h-6.922l-1.695,3.243h3.389v-2.178
	h1.017v2.178h3.534v0.679h-3.534v2.032h4.405v0.726h-4.405v2.083h-1.017v-2.083h-5.519v-0.726h5.519v-2.032h-3.631
	c-0.42,0-0.662-0.081-0.726-0.243c-0.097-0.225-0.081-0.467,0.048-0.726l1.501-2.953H129.566z"/>
<path fill="#040000" d="M161.232,38.055v-0.715h2.767c0.16-0.446,0.373-1.252,0.501-1.666h1.05c-0.127,0.414-0.341,1.22-0.5,1.666
	h6.682v0.715h-7.016c-0.446,0.955-0.94,1.894-1.48,2.817v5.871h-1.003v-4.487c-0.254,0.286-0.767,0.862-0.958,1.116l-0.764-0.573
	c1.304-1.558,2.55-3.343,3.155-4.744H161.232z M163.904,46.6v-0.716h3.437v-3.867h-2.959v-0.716h2.959v-2.291h0.954v2.291h3.055
	v0.716h-3.055v3.867h3.628V46.6H163.904z"/>
<path fill="#040000" d="M192.494,40.342l-0.791-0.466c0.9-1.396,1.583-2.793,2.048-4.19h0.978c-0.063,0.125-0.125,0.296-0.186,0.513
	c-0.156,0.342-0.264,0.605-0.327,0.791h4.33c0.621,0.063,0.962,0.388,1.025,0.978v1.908h-0.885V38.2c0-0.31-0.155-0.465-0.465-0.465
	h-4.284C193.502,38.666,193.022,39.536,192.494,40.342"/>
<path fill="#040000" d="M188.372,41.46c1.242-1.691,2.181-3.62,2.817-5.785l0.955,0.28c-0.349,0.982-0.718,1.891-1.106,2.729v8.317
	h-0.908v-6.559c-0.435,0.76-0.888,1.441-1.362,2.042C188.659,42.143,188.528,41.802,188.372,41.46 M194.425,41.32
	c-0.52,1.273-1.098,2.6-1.734,3.981c-0.264-0.132-0.555-0.26-0.874-0.384c0.66-1.288,1.234-2.584,1.723-3.887L194.425,41.32z
	 M195.508,39.307h0.907v6.145c0,1.048-0.477,1.564-1.431,1.549c-0.435,0.007-1.374-0.011-1.374-0.011l0.001-0.939
	c0,0,0.771,0.03,1.128,0.03c0.512,0.015,0.769-0.248,0.769-0.792V39.307z M198.219,40.983c0.544,1.086,1.137,2.355,1.781,3.806
	l-0.884,0.407c-0.505-1.241-1.075-2.525-1.712-3.852L198.219,40.983z"/>
<path fill="#040000" d="M73.431,38.055v-0.715h2.768c0.16-0.446,0.373-1.252,0.501-1.666h1.05c-0.127,0.414-0.341,1.22-0.501,1.666
	h6.683v0.715h-7.016c-0.446,0.955-0.94,1.894-1.48,2.817v5.871h-1.003v-4.487c-0.254,0.286-0.767,0.862-0.958,1.116L72.711,42.8
	c1.304-1.558,2.549-3.343,3.155-4.744H73.431z M76.104,46.6v-0.716h3.437v-3.867h-2.96v-0.716h2.96v-2.291h0.954v2.291h3.055v0.716
	h-3.055v3.867h3.628V46.6H76.104z"/>
<path fill="#040000" d="M104.937,40.622l-0.791-0.466c0.9-1.396,1.583-2.793,2.048-4.189h0.978
	c-0.062,0.124-0.125,0.295-0.186,0.512c-0.156,0.342-0.264,0.605-0.326,0.791h4.329c0.621,0.063,0.963,0.388,1.025,0.978v1.908
	h-0.885V38.48c0-0.309-0.155-0.465-0.465-0.465h-4.283C105.945,38.946,105.465,39.816,104.937,40.622"/>
<path fill="#040000" d="M100.815,41.46c1.242-1.691,2.181-3.62,2.817-5.785l0.955,0.28c-0.349,0.982-0.718,1.891-1.106,2.729v8.317
	h-0.908v-6.559c-0.435,0.76-0.889,1.441-1.362,2.042C101.102,42.143,100.971,41.802,100.815,41.46 M106.868,41.32
	c-0.52,1.273-1.098,2.6-1.734,3.981c-0.264-0.132-0.555-0.26-0.873-0.384c0.659-1.288,1.233-2.584,1.722-3.887L106.868,41.32z
	 M107.95,39.307h0.908v6.145c0,1.048-0.477,1.564-1.431,1.549c-0.435,0.007-1.374-0.011-1.374-0.011l0.001-0.939
	c0,0,0.771,0.03,1.128,0.03c0.512,0.015,0.768-0.248,0.768-0.792V39.307z M110.663,40.983c0.544,1.086,1.137,2.355,1.781,3.806
	l-0.884,0.407c-0.505-1.241-1.075-2.525-1.712-3.852L110.663,40.983z"/>
<path fill="#040000" d="M115.38,46.93v-9.453h1.482c0,0,0.307-0.902,0.409-1.584h1.022c-0.171,0.75-0.329,1.584-0.329,1.584h2.117
	v7.971c0.033,1.022-0.443,1.516-1.43,1.482H115.38z M116.351,41.667h2.759v-3.475h-2.759V41.667z M116.351,46.317h2.044
	c0.511,0,0.749-0.272,0.715-0.818v-3.117h-2.759V46.317z"/>
<path fill="#040000" d="M120.121,39.993c0.729-1.156,1.346-2.595,1.851-4.318l0.978,0.244c-0.198,0.586-0.4,1.137-0.605,1.653h3.747
	c-0.093,3.988-0.171,6.499-0.232,7.531c-0.055,1.218-0.695,1.827-1.921,1.827c-0.706,0-1.252-0.013-1.981-0.059
	c-0.047-0.388-0.026-0.935-0.026-0.935h0.035c1.14,0.059,2.047,0.039,2.155,0.013c0.478-0.112,0.739-0.472,0.783-1.079
	c0.086-1.156,0.147-3.298,0.186-6.425h-3.119c-0.337,0.749-0.687,1.409-1.048,1.979C120.715,40.276,120.446,40.133,120.121,39.993"
	/>
<polygon fill="#040000" points="121.381,41.066 122.226,40.408 124.152,43.185 123.29,43.79 "/>
<path fill="#040000" d="M89.884,46.582l-0.004-0.747h1.594c0.398-0.034,0.614-0.232,0.647-0.598V42.03h-5.262v-0.746h5.262V36.97
	c-1.428,0.033-3.005,0.083-4.731,0.149l-0.1-0.796c3.552-0.033,6.923-0.249,10.11-0.648l0.2,0.797
	c-1.694,0.199-3.172,0.349-4.433,0.448v4.364h5.021v0.746h-5.021v3.506c-0.067,0.631-0.482,0.979-1.245,1.046H89.884z"/>
<path fill="#040000" d="M88.077,38.398l0.756-0.501c0.551,0.652,1.13,1.401,1.735,2.246l-0.873,0.594
	C89.128,39.845,88.589,39.065,88.077,38.398"/>
<path fill="#040000" d="M94.386,40.133c0.574-0.659,1.152-1.436,1.734-2.328l0.85,0.558c-0.574,0.815-1.18,1.599-1.816,2.352
	L94.386,40.133z"/>
<path fill="#040000" d="M177.562,46.582l-0.004-0.747h1.593c0.399-0.034,0.615-0.232,0.648-0.598V42.03h-5.262v-0.746h5.262V36.97
	c-1.428,0.033-3.005,0.083-4.731,0.149l-0.1-0.796c3.552-0.033,6.923-0.249,10.11-0.648l0.2,0.797
	c-1.694,0.199-3.172,0.349-4.433,0.448v4.364h5.021v0.746h-5.021v3.506c-0.067,0.631-0.482,0.979-1.245,1.046H177.562z"/>
<path fill="#040000" d="M175.756,38.398l0.756-0.501c0.551,0.652,1.13,1.401,1.735,2.246l-0.873,0.594
	C176.807,39.845,176.268,39.065,175.756,38.398"/>
<path fill="#040000" d="M182.064,40.133c0.574-0.659,1.152-1.436,1.734-2.328l0.85,0.558c-0.574,0.815-1.18,1.599-1.816,2.352
	L182.064,40.133z"/>
<path fill-rule="evenodd" clip-rule="evenodd" fill="#040000" d="M29.189,36.689c9.926-0.312,17.796-8.209,17.912-18.015
	L47.1,10.241h10.922v9.324c-0.214,15.164-13.397,27.127-28.833,27.471v-0.002C13.498,46.937,0.216,34.887,0,19.563V2.803
	c-0.025-1.714,1.092-2.826,2.777-2.801L47.094,0v10.238l-34.751,0.008c-0.892,0-1.426,0.544-1.426,1.427v6.83
	c0.117,9.938,8.122,18.084,18.271,18.186H29.189z"/>
</svg>
