<?xml version="1.0" encoding="utf-8"?>
<!-- Generator: Adobe Illustrator 17.0.0, SVG Export Plug-In . SVG Version: 6.00 Build 0)  -->
<!DOCTYPE svg PUBLIC "-//W3C//DTD SVG 1.1//EN" "http://www.w3.org/Graphics/SVG/1.1/DTD/svg11.dtd">
<svg version="1.1" id="图层_1" xmlns="http://www.w3.org/2000/svg" xmlns:xlink="http://www.w3.org/1999/xlink" x="0px" y="0px"
	 width="374.605px" height="464.184px" viewBox="0 0 374.605 464.184" enable-background="new 0 0 374.605 464.184"
	 xml:space="preserve">
<rect x="233.018" y="197.847" fill="#F08723" width="15.461" height="15.461"/>
<rect x="233.018" y="216.292" fill="#F08723" width="15.461" height="15.461"/>
<rect x="251.462" y="197.847" fill="#F08723" width="15.461" height="15.461"/>
<rect x="269.906" y="197.847" fill="#F08723" width="15.461" height="15.461"/>
<rect x="288.35" y="197.847" fill="#F08723" width="15.461" height="15.461"/>
<rect x="306.794" y="197.847" fill="#F08723" width="15.461" height="15.461"/>
<rect x="325.239" y="197.847" fill="#F08723" width="15.461" height="15.461"/>
<rect x="251.462" y="179.403" fill="#F08723" width="15.461" height="15.461"/>
<rect x="269.906" y="179.403" fill="#F08723" width="15.461" height="15.461"/>
<rect x="288.35" y="179.403" fill="#F08723" width="15.461" height="15.461"/>
<rect x="306.794" y="179.403" fill="#F08723" width="15.461" height="15.461"/>
<rect x="269.906" y="160.959" fill="#F08723" width="15.461" height="15.461"/>
<rect x="288.35" y="160.959" fill="#F08723" width="15.461" height="15.461"/>
<rect x="306.794" y="160.959" fill="#F08723" width="15.461" height="15.461"/>
<rect x="325.239" y="179.403" fill="#F08723" width="15.461" height="15.461"/>
<rect x="343.683" y="197.847" fill="#F08723" width="15.461" height="15.461"/>
<rect x="233.018" y="234.736" fill="#F08723" width="15.461" height="15.461"/>
<rect x="233.018" y="253.18" fill="#F08723" width="15.461" height="15.461"/>
<rect x="251.462" y="271.624" fill="#F08723" width="15.461" height="15.461"/>
<rect x="217.557" y="271.624" fill="#F08723" width="15.461" height="15.461"/>
<rect x="269.906" y="271.624" fill="#F08723" width="15.461" height="15.461"/>
<rect x="288.35" y="271.624" fill="#F08723" width="15.461" height="15.461"/>
<path fill="#F08723" d="M269.917,247.214h-3.005c-3.439,0-6.228-2.788-6.228-6.228v-3.005c0-3.44,2.789-6.228,6.228-6.228h3.005
	c3.44,0,6.228,2.788,6.228,6.228v3.005C276.145,244.426,273.357,247.214,269.917,247.214"/>
<path fill="#F08723" d="M325.249,247.214h-3.005c-3.439,0-6.228-2.788-6.228-6.228v-3.005c0-3.44,2.789-6.228,6.228-6.228h3.005
	c3.44,0,6.228,2.788,6.228,6.228v3.005C331.477,244.426,328.689,247.214,325.249,247.214"/>
<rect x="306.794" y="271.624" fill="#F08723" width="15.461" height="15.461"/>
<rect x="325.239" y="271.624" fill="#F08723" width="15.461" height="15.461"/>
<rect x="359.144" y="271.624" fill="#F08723" width="15.461" height="15.461"/>
<rect x="343.683" y="216.292" fill="#F08723" width="15.461" height="15.461"/>
<rect x="343.683" y="234.736" fill="#F08723" width="15.461" height="15.461"/>
<rect x="343.683" y="253.18" fill="#F08723" width="15.461" height="15.461"/>
<path fill="#F08723" d="M311.346,254.61c0-8.226-6.669-14.895-14.895-14.895h-0.21c-8.227,0-14.895,6.669-14.895,14.895v0.211
	c0,8.226,6.668,14.894,14.895,14.894h0.21c8.226,0,14.895-6.668,14.895-14.894V254.61z M303.346,254.268
	c0,4.113-3.334,7.447-7.447,7.447h-0.106c-4.113,0-7.447-3.334-7.447-7.447v-0.105c0-4.113,3.334-7.448,7.447-7.448h0.106
	c4.113,0,7.447,3.335,7.447,7.448V254.268z"/>
<rect x="36.889" y="262.457" fill="#F08723" width="15.461" height="15.461"/>
<rect x="18.445" y="170.126" fill="#F08723" width="15.461" height="15.461"/>
<rect x="36.889" y="170.126" fill="#F08723" width="15.461" height="15.461"/>
<rect x="55.333" y="170.126" fill="#F08723" width="15.461" height="15.461"/>
<rect x="73.777" y="170.126" fill="#F08723" width="15.461" height="15.461"/>
<rect x="36.889" y="207.015" fill="#F08723" width="15.461" height="15.461"/>
<rect x="73.777" y="207.015" fill="#F08723" width="15.461" height="15.461"/>
<rect x="110.665" y="207.015" fill="#F08723" width="15.461" height="15.461"/>
<rect x="92.221" y="170.126" fill="#F08723" width="15.461" height="15.461"/>
<rect x="110.665" y="170.126" fill="#F08723" width="15.461" height="15.461"/>
<rect x="0.001" y="188.571" fill="#F08723" width="15.461" height="15.461"/>
<rect x="0.001" y="207.015" fill="#F08723" width="15.461" height="15.461"/>
<rect x="0.001" y="225.459" fill="#F08723" width="15.461" height="15.461"/>
<rect x="110.665" y="243.903" fill="#F08723" width="15.461" height="15.461"/>
<rect x="129.109" y="170.126" fill="#F08723" width="15.461" height="15.461"/>
<rect x="147.554" y="188.571" fill="#F08723" width="15.461" height="15.461"/>
<rect x="147.554" y="207.015" fill="#F08723" width="15.461" height="15.461"/>
<rect x="147.554" y="225.459" fill="#F08723" width="15.461" height="15.461"/>
<rect x="129.109" y="243.903" fill="#F08723" width="15.461" height="15.461"/>
<rect x="92.221" y="243.903" fill="#F08723" width="15.461" height="15.461"/>
<rect x="73.777" y="243.903" fill="#F08723" width="15.461" height="15.461"/>
<rect x="55.333" y="243.903" fill="#F08723" width="15.461" height="15.461"/>
<rect x="18.445" y="243.903" fill="#F08723" width="15.461" height="15.461"/>
<rect x="156.879" y="412.352" fill="#F08723" width="15.461" height="15.461"/>
<rect x="175.323" y="412.352" fill="#F08723" width="15.461" height="15.461"/>
<rect x="193.767" y="412.352" fill="#F08723" width="15.461" height="15.461"/>
<rect x="175.323" y="393.908" fill="#F08723" width="15.461" height="15.461"/>
<rect x="175.323" y="430.796" fill="#F08723" width="15.461" height="15.461"/>
<path fill="#F08723" d="M51.346,355.61c0-8.226-6.669-14.895-14.895-14.895h-0.21c-8.226,0-14.895,6.669-14.895,14.895v0.211
	c0,8.226,6.669,14.894,14.895,14.894h0.21c8.226,0,14.895-6.668,14.895-14.894V355.61z M43.346,356.268
	c0,4.113-3.334,7.447-7.447,7.447h-0.106c-4.113,0-7.447-3.334-7.447-7.447v-0.105c0-4.113,3.334-7.448,7.447-7.448h0.106
	c4.113,0,7.447,3.335,7.447,7.448V356.268z"/>
<rect x="18.449" y="374.942" fill="#F08723" width="15.461" height="15.461"/>
<rect x="36.885" y="374.942" fill="#F08723" width="15.461" height="15.461"/>
<rect x="0.001" y="393.391" fill="#F08723" width="15.461" height="15.461"/>
<rect x="0.001" y="411.835" fill="#F08723" width="15.461" height="15.461"/>
<rect x="0.001" y="430.279" fill="#F08723" width="15.461" height="15.461"/>
<rect x="0.001" y="448.723" fill="#F08723" width="15.461" height="15.461"/>
<rect x="0.001" y="393.391" fill="#F08723" width="15.461" height="15.461"/>
<rect x="0.001" y="411.835" fill="#F08723" width="15.461" height="15.461"/>
<rect x="0.001" y="430.279" fill="#F08723" width="15.461" height="15.461"/>
<rect x="0.001" y="448.723" fill="#F08723" width="15.461" height="15.461"/>
<rect x="18.44" y="448.723" fill="#F08723" width="15.461" height="15.461"/>
<rect x="36.88" y="448.723" fill="#F08723" width="15.461" height="15.461"/>
<rect x="55.324" y="393.391" fill="#F08723" width="15.461" height="15.461"/>
<rect x="55.324" y="411.835" fill="#F08723" width="15.461" height="15.461"/>
<rect x="55.324" y="430.279" fill="#F08723" width="15.461" height="15.461"/>
<rect x="55.324" y="448.723" fill="#F08723" width="15.461" height="15.461"/>
<path fill="#F08723" d="M107.346,355.61c0-8.226-6.669-14.895-14.895-14.895h-0.21c-8.226,0-14.895,6.669-14.895,14.895v0.211
	c0,8.226,6.669,14.894,14.895,14.894h0.21c8.226,0,14.895-6.668,14.895-14.894V355.61z M99.346,356.268
	c0,4.113-3.334,7.447-7.447,7.447h-0.106c-4.113,0-7.447-3.334-7.447-7.447v-0.105c0-4.113,3.334-7.448,7.447-7.448h0.106
	c4.113,0,7.447,3.335,7.447,7.448V356.268z"/>
<rect x="74.45" y="374.942" fill="#F08723" width="15.461" height="15.461"/>
<rect x="92.886" y="374.942" fill="#F08723" width="15.461" height="15.461"/>
<rect x="56.002" y="393.391" fill="#F08723" width="15.461" height="15.461"/>
<rect x="56.002" y="411.835" fill="#F08723" width="15.461" height="15.461"/>
<rect x="56.002" y="430.279" fill="#F08723" width="15.461" height="15.461"/>
<rect x="56.002" y="448.723" fill="#F08723" width="15.461" height="15.461"/>
<rect x="56.002" y="448.723" fill="#F08723" width="15.461" height="15.461"/>
<rect x="74.441" y="448.723" fill="#F08723" width="15.461" height="15.461"/>
<rect x="92.881" y="448.723" fill="#F08723" width="15.461" height="15.461"/>
<rect x="111.325" y="393.391" fill="#F08723" width="15.461" height="15.461"/>
<rect x="111.325" y="411.835" fill="#F08723" width="15.461" height="15.461"/>
<rect x="111.325" y="430.279" fill="#F08723" width="15.461" height="15.461"/>
<rect x="111.325" y="448.723" fill="#F08723" width="15.461" height="15.461"/>
<rect x="359.144" y="372.995" fill="#F08723" width="15.461" height="15.461"/>
<rect x="340.7" y="372.995" fill="#F08723" width="15.461" height="15.461"/>
<rect x="322.256" y="372.995" fill="#F08723" width="15.461" height="15.461"/>
<rect x="303.811" y="372.995" fill="#F08723" width="15.461" height="15.461"/>
<rect x="285.367" y="372.995" fill="#F08723" width="15.461" height="15.461"/>
<rect x="266.923" y="372.995" fill="#F08723" width="15.461" height="15.461"/>
<rect x="248.479" y="372.995" fill="#F08723" width="15.461" height="15.461"/>
<rect x="230.035" y="372.995" fill="#F08723" width="15.461" height="15.461"/>
<rect x="359.144" y="410.859" fill="#F08723" width="15.461" height="15.461"/>
<rect x="322.256" y="410.859" fill="#F08723" width="15.461" height="15.461"/>
<rect x="303.811" y="410.859" fill="#F08723" width="15.461" height="15.461"/>
<rect x="285.367" y="410.859" fill="#F08723" width="15.461" height="15.461"/>
<rect x="266.923" y="410.859" fill="#F08723" width="15.461" height="15.461"/>
<rect x="248.479" y="410.859" fill="#F08723" width="15.461" height="15.461"/>
<rect x="230.035" y="410.859" fill="#F08723" width="15.461" height="15.461"/>
<rect x="359.144" y="448.723" fill="#F08723" width="15.461" height="15.461"/>
<rect x="340.7" y="448.723" fill="#F08723" width="15.461" height="15.461"/>
<rect x="322.256" y="448.723" fill="#F08723" width="15.461" height="15.461"/>
<rect x="303.811" y="448.723" fill="#F08723" width="15.461" height="15.461"/>
<rect x="285.367" y="448.723" fill="#F08723" width="15.461" height="15.461"/>
<rect x="266.923" y="448.723" fill="#F08723" width="15.461" height="15.461"/>
<rect x="248.479" y="448.723" fill="#F08723" width="15.461" height="15.461"/>
<rect x="230.035" y="448.723" fill="#F08723" width="15.461" height="15.461"/>
<rect x="241.369" y="0" fill="#F08723" width="15.461" height="15.461"/>
<rect x="222.925" y="0" fill="#F08723" width="15.461" height="15.461"/>
<rect x="204.481" y="0" fill="#F08723" width="15.461" height="15.461"/>
<rect x="186.037" y="0" fill="#F08723" width="15.461" height="15.461"/>
<rect x="167.592" y="0" fill="#F08723" width="15.461" height="15.461"/>
<rect x="149.148" y="0" fill="#F08723" width="15.461" height="15.461"/>
<rect x="149.148" y="18.444" fill="#F08723" width="15.461" height="15.461"/>
<rect x="149.148" y="36.888" fill="#F08723" width="15.461" height="15.461"/>
<rect x="167.592" y="55.332" fill="#F08723" width="15.461" height="15.461"/>
<rect x="259.813" y="18.444" fill="#F08723" width="15.461" height="15.461"/>
<rect x="259.813" y="36.888" fill="#F08723" width="15.461" height="15.461"/>
<rect x="241.369" y="55.332" fill="#F08723" width="15.461" height="15.461"/>
<rect x="186.036" y="73.777" fill="#F08723" width="15.461" height="15.461"/>
<rect x="204.481" y="73.777" fill="#F08723" width="15.461" height="15.461"/>
<rect x="222.925" y="73.777" fill="#F08723" width="15.461" height="15.461"/>
<rect x="324.368" y="73.777" fill="#F08723" width="15.461" height="15.461"/>
<rect x="324.368" y="55.332" fill="#F08723" width="15.461" height="15.461"/>
<rect x="324.368" y="36.888" fill="#F08723" width="15.461" height="15.461"/>
<rect x="324.368" y="18.444" fill="#F08723" width="15.461" height="15.461"/>
<rect x="324.368" y="0" fill="#F08723" width="15.461" height="15.461"/>
<rect x="356.314" y="55.333" transform="matrix(0.5 -0.866 0.866 0.5 127.4038 346.7997)" fill="#F08723" width="15.462" height="15.461"/>
<rect x="340.341" y="46.11" transform="matrix(0.5 -0.866 0.866 0.5 127.404 328.3558)" fill="#F08723" width="15.462" height="15.461"/>
<rect x="308.395" y="27.666" transform="matrix(0.5 -0.866 0.866 0.5 127.4042 291.468)" fill="#F08723" width="15.462" height="15.461"/>
<rect x="292.422" y="18.444" transform="matrix(0.5 -0.866 0.866 0.5 127.4044 273.0241)" fill="#F08723" width="15.462" height="15.461"/>
<rect x="356.314" y="18.444" transform="matrix(-0.5 -0.866 0.866 -0.5 523.4042 354.5314)" fill="#F08723" width="15.462" height="15.461"/>
<rect x="340.341" y="27.666" transform="matrix(-0.5 -0.866 0.866 -0.5 491.4579 354.5317)" fill="#F08723" width="15.462" height="15.461"/>
<rect x="308.395" y="46.11" transform="matrix(-0.5 -0.866 0.866 -0.5 427.5652 354.532)" fill="#F08723" width="15.462" height="15.461"/>
<rect x="292.422" y="55.332" transform="matrix(-0.5 -0.866 0.866 -0.5 395.6188 354.5323)" fill="#F08723" width="15.462" height="15.461"/>
<rect x="0" y="0" fill="#F08723" width="15.461" height="15.461"/>
<rect x="18.445" y="0" fill="#F08723" width="15.461" height="15.461"/>
<rect x="36.889" y="0" fill="#F08723" width="15.461" height="15.461"/>
<rect x="55.333" y="0" fill="#F08723" width="15.461" height="15.461"/>
<rect x="73.777" y="0" fill="#F08723" width="15.461" height="15.461"/>
<rect x="92.221" y="0" fill="#F08723" width="15.461" height="15.461"/>
<rect x="110.665" y="0" fill="#F08723" width="15.461" height="15.461"/>
<rect x="0" y="37.864" fill="#F08723" width="15.461" height="15.461"/>
<rect x="36.889" y="37.864" fill="#F08723" width="15.461" height="15.461"/>
<rect x="55.333" y="37.864" fill="#F08723" width="15.461" height="15.461"/>
<rect x="73.777" y="37.864" fill="#F08723" width="15.461" height="15.461"/>
<rect x="92.221" y="37.864" fill="#F08723" width="15.461" height="15.461"/>
<rect x="110.665" y="37.864" fill="#F08723" width="15.461" height="15.461"/>
<rect x="0" y="75.728" fill="#F08723" width="15.461" height="15.461"/>
<rect x="18.445" y="75.728" fill="#F08723" width="15.461" height="15.461"/>
<rect x="36.889" y="75.728" fill="#F08723" width="15.461" height="15.461"/>
<rect x="55.333" y="75.728" fill="#F08723" width="15.461" height="15.461"/>
<rect x="73.777" y="75.728" fill="#F08723" width="15.461" height="15.461"/>
<rect x="92.221" y="75.728" fill="#F08723" width="15.461" height="15.461"/>
<rect x="110.665" y="75.728" fill="#F08723" width="15.461" height="15.461"/>
</svg>
