<?xml version="1.0" encoding="utf-8"?>
<!-- Generator: Adobe Illustrator 17.0.0, SVG Export Plug-In . SVG Version: 6.00 Build 0)  -->
<!DOCTYPE svg PUBLIC "-//W3C//DTD SVG 1.1//EN" "http://www.w3.org/Graphics/SVG/1.1/DTD/svg11.dtd">
<svg version="1.1" id="图层_1" xmlns="http://www.w3.org/2000/svg" xmlns:xlink="http://www.w3.org/1999/xlink" x="0px" y="0px"
	 width="483.218px" height="270.054px" viewBox="0 0 483.218 270.054" enable-background="new 0 0 483.218 270.054"
	 xml:space="preserve">
<rect x="377.047" y="256.365" fill="#F08723" width="6.242" height="6.242"/>
<rect x="384.494" y="256.365" fill="#F08723" width="6.242" height="6.242"/>
<rect x="391.94" y="256.365" fill="#F08723" width="6.242" height="6.242"/>
<rect x="384.494" y="248.918" fill="#F08723" width="6.242" height="6.242"/>
<rect x="384.494" y="263.812" fill="#F08723" width="6.242" height="6.242"/>
<rect x="406.834" y="248.918" fill="#F08723" width="6.242" height="6.242"/>
<rect x="406.834" y="263.812" fill="#F08723" width="6.242" height="6.242"/>
<rect x="399.387" y="256.365" fill="#F08723" width="6.242" height="6.242"/>
<rect x="406.834" y="256.365" fill="#F08723" width="6.242" height="6.242"/>
<rect x="414.281" y="256.365" fill="#F08723" width="6.242" height="6.242"/>
<rect x="421.728" y="256.365" fill="#F08723" width="6.242" height="6.242"/>
<rect x="429.175" y="256.365" fill="#F08723" width="6.242" height="6.242"/>
<rect x="421.728" y="248.918" fill="#F08723" width="6.242" height="6.242"/>
<rect x="421.728" y="263.812" fill="#F08723" width="6.242" height="6.242"/>
<rect x="444.069" y="248.918" fill="#F08723" width="6.242" height="6.242"/>
<rect x="444.069" y="263.812" fill="#F08723" width="6.242" height="6.242"/>
<rect x="436.622" y="256.365" fill="#F08723" width="6.242" height="6.242"/>
<rect x="444.069" y="256.365" fill="#F08723" width="6.242" height="6.242"/>
<rect x="451.516" y="256.365" fill="#F08723" width="6.242" height="6.242"/>
<rect x="94.879" y="218.55" fill="#F08723" width="6.242" height="6.242"/>
<rect x="94.879" y="248.331" fill="#F08723" width="6.242" height="6.242"/>
<rect x="87.434" y="225.995" fill="#F08723" width="6.242" height="6.242"/>
<rect x="79.988" y="233.44" fill="#F08723" width="6.242" height="6.242"/>
<rect x="72.543" y="240.886" fill="#F08723" width="6.242" height="6.242"/>
<rect x="72.543" y="248.331" fill="#F08723" width="6.242" height="6.242"/>
<rect x="72.543" y="255.776" fill="#F08723" width="6.242" height="6.242"/>
<rect x="72.543" y="263.222" fill="#F08723" width="6.242" height="6.242"/>
<rect x="79.988" y="263.222" fill="#F08723" width="6.242" height="6.242"/>
<rect x="87.434" y="263.222" fill="#F08723" width="6.242" height="6.242"/>
<rect x="94.879" y="263.222" fill="#F08723" width="6.242" height="6.242"/>
<rect x="102.324" y="263.222" fill="#F08723" width="6.242" height="6.242"/>
<rect x="109.77" y="263.222" fill="#F08723" width="6.242" height="6.242"/>
<rect x="117.215" y="248.331" fill="#F08723" width="6.242" height="6.242"/>
<rect x="117.215" y="255.776" fill="#F08723" width="6.242" height="6.242"/>
<rect x="117.215" y="263.222" fill="#F08723" width="6.242" height="6.242"/>
<rect x="124.66" y="263.222" fill="#F08723" width="6.242" height="6.242"/>
<rect x="132.106" y="263.222" fill="#F08723" width="6.242" height="6.242"/>
<rect x="139.552" y="263.222" fill="#F08723" width="6.242" height="6.242"/>
<rect x="146.996" y="263.222" fill="#F08723" width="6.242" height="6.242"/>
<rect x="154.442" y="263.222" fill="#F08723" width="6.242" height="6.242"/>
<rect x="161.887" y="263.222" fill="#F08723" width="6.242" height="6.242"/>
<rect x="161.887" y="255.776" fill="#F08723" width="6.242" height="6.242"/>
<rect x="161.887" y="248.331" fill="#F08723" width="6.242" height="6.242"/>
<rect x="161.887" y="240.886" fill="#F08723" width="6.242" height="6.242"/>
<rect x="161.887" y="233.44" fill="#F08723" width="6.242" height="6.242"/>
<rect x="169.332" y="263.222" fill="#F08723" width="6.242" height="6.242"/>
<rect x="176.778" y="263.222" fill="#F08723" width="6.242" height="6.242"/>
<rect x="184.223" y="263.222" fill="#F08723" width="6.242" height="6.242"/>
<rect x="65.098" y="248.331" fill="#F08723" width="6.242" height="6.242"/>
<rect x="102.324" y="225.995" fill="#F08723" width="6.242" height="6.242"/>
<rect x="109.77" y="233.44" fill="#F08723" width="6.242" height="6.242"/>
<rect x="117.215" y="240.886" fill="#F08723" width="6.242" height="6.242"/>
<rect x="124.66" y="248.331" fill="#F08723" width="6.242" height="6.242"/>
<rect x="154.442" y="225.995" fill="#F08723" width="6.242" height="6.242"/>
<rect x="146.995" y="218.548" fill="#F08723" width="6.242" height="6.242"/>
<rect x="139.548" y="225.995" fill="#F08723" width="6.242" height="6.242"/>
<rect x="139.548" y="233.44" fill="#F08723" width="6.242" height="6.242"/>
<rect x="146.995" y="240.886" fill="#F08723" width="6.242" height="6.242"/>
<rect x="154.441" y="248.333" fill="#F08723" width="6.242" height="6.242"/>
<rect x="169.332" y="225.995" fill="#F08723" width="6.242" height="6.242"/>
<rect x="176.78" y="218.548" fill="#F08723" width="6.242" height="6.242"/>
<rect x="184.227" y="225.995" fill="#F08723" width="6.242" height="6.242"/>
<rect x="184.227" y="233.44" fill="#F08723" width="6.242" height="6.242"/>
<rect x="176.78" y="240.886" fill="#F08723" width="6.242" height="6.242"/>
<rect x="169.334" y="248.333" fill="#F08723" width="6.242" height="6.242"/>
<rect x="299.457" y="263.81" fill="#F08723" width="6.242" height="6.242"/>
<rect x="306.904" y="248.916" fill="#F08723" width="6.242" height="6.242"/>
<rect x="306.904" y="234.023" fill="#F08723" width="6.242" height="6.242"/>
<rect x="306.904" y="219.129" fill="#F08723" width="6.242" height="6.242"/>
<rect x="306.904" y="204.236" fill="#F08723" width="6.242" height="6.242"/>
<rect x="299.457" y="204.236" fill="#F08723" width="6.242" height="6.242"/>
<rect x="292.01" y="263.81" fill="#F08723" width="6.242" height="6.242"/>
<rect x="292.01" y="256.363" fill="#F08723" width="6.242" height="6.242"/>
<rect x="292.01" y="248.916" fill="#F08723" width="6.242" height="6.242"/>
<rect x="292.01" y="241.47" fill="#F08723" width="6.242" height="6.242"/>
<rect x="292.01" y="234.023" fill="#F08723" width="6.242" height="6.242"/>
<rect x="292.01" y="226.576" fill="#F08723" width="6.242" height="6.242"/>
<rect x="292.01" y="219.129" fill="#F08723" width="6.242" height="6.242"/>
<rect x="292.01" y="211.682" fill="#F08723" width="6.242" height="6.242"/>
<rect x="292.01" y="204.236" fill="#F08723" width="6.242" height="6.242"/>
<rect x="292.01" y="196.789" fill="#F08723" width="6.242" height="6.242"/>
<rect x="321.798" y="256.363" fill="#F08723" width="6.242" height="6.242"/>
<rect x="321.798" y="248.916" fill="#F08723" width="6.242" height="6.242"/>
<rect x="321.798" y="241.47" fill="#F08723" width="6.242" height="6.242"/>
<rect x="321.798" y="234.023" fill="#F08723" width="6.242" height="6.242"/>
<rect x="321.798" y="226.576" fill="#F08723" width="6.242" height="6.242"/>
<rect x="321.798" y="219.129" fill="#F08723" width="6.242" height="6.242"/>
<rect x="321.798" y="211.682" fill="#F08723" width="6.242" height="6.242"/>
<rect x="321.798" y="204.236" fill="#F08723" width="6.242" height="6.242"/>
<rect x="321.798" y="196.789" fill="#F08723" width="6.242" height="6.242"/>
<rect x="306.904" y="263.81" fill="#F08723" width="6.242" height="6.242"/>
<rect x="314.351" y="263.81" fill="#F08723" width="6.242" height="6.242"/>
<rect x="343.402" y="263.81" fill="#F08723" width="6.242" height="6.242"/>
<rect x="343.402" y="226.576" fill="#F08723" width="6.242" height="6.242"/>
<rect x="335.955" y="263.81" fill="#F08723" width="6.242" height="6.242"/>
<rect x="335.955" y="256.363" fill="#F08723" width="6.242" height="6.242"/>
<rect x="335.955" y="248.916" fill="#F08723" width="6.242" height="6.242"/>
<rect x="335.955" y="241.47" fill="#F08723" width="6.242" height="6.242"/>
<rect x="335.955" y="234.023" fill="#F08723" width="6.242" height="6.242"/>
<rect x="335.955" y="226.576" fill="#F08723" width="6.242" height="6.242"/>
<rect x="350.849" y="256.363" fill="#F08723" width="6.242" height="6.242"/>
<rect x="350.849" y="248.916" fill="#F08723" width="6.242" height="6.242"/>
<rect x="350.849" y="241.47" fill="#F08723" width="6.242" height="6.242"/>
<rect x="350.849" y="234.023" fill="#F08723" width="6.242" height="6.242"/>
<rect x="350.849" y="226.576" fill="#F08723" width="6.242" height="6.242"/>
<rect x="350.849" y="263.81" fill="#F08723" width="6.242" height="6.242"/>
<rect x="306.904" y="196.789" fill="#F08723" width="6.242" height="6.242"/>
<rect x="314.351" y="204.236" fill="#F08723" width="6.242" height="6.242"/>
<rect x="321.798" y="263.81" fill="#F08723" width="6.242" height="6.242"/>
<rect x="348.557" y="14.894" fill="#F08723" width="6.242" height="6.242"/>
<rect x="348.557" y="22.34" fill="#F08723" width="6.242" height="6.242"/>
<rect x="356.004" y="14.894" fill="#F08723" width="6.242" height="6.242"/>
<rect x="363.451" y="14.894" fill="#F08723" width="6.242" height="6.242"/>
<rect x="370.898" y="14.894" fill="#F08723" width="6.242" height="6.242"/>
<rect x="378.345" y="14.894" fill="#F08723" width="6.242" height="6.242"/>
<rect x="385.792" y="14.894" fill="#F08723" width="6.242" height="6.242"/>
<rect x="356.004" y="7.447" fill="#F08723" width="6.242" height="6.242"/>
<rect x="363.451" y="7.447" fill="#F08723" width="6.242" height="6.242"/>
<rect x="370.898" y="7.447" fill="#F08723" width="6.242" height="6.242"/>
<rect x="378.345" y="7.447" fill="#F08723" width="6.242" height="6.242"/>
<rect x="363.451" y="0" fill="#F08723" width="6.242" height="6.242"/>
<rect x="370.898" y="0" fill="#F08723" width="6.242" height="6.242"/>
<rect x="378.345" y="0" fill="#F08723" width="6.242" height="6.242"/>
<rect x="385.792" y="7.447" fill="#F08723" width="6.242" height="6.242"/>
<rect x="393.239" y="14.894" fill="#F08723" width="6.242" height="6.242"/>
<rect x="348.557" y="29.787" fill="#F08723" width="6.242" height="6.242"/>
<rect x="348.557" y="37.234" fill="#F08723" width="6.242" height="6.242"/>
<rect x="356.004" y="44.681" fill="#F08723" width="6.242" height="6.242"/>
<rect x="342.315" y="44.681" fill="#F08723" width="6.242" height="6.242"/>
<rect x="363.451" y="44.681" fill="#F08723" width="6.242" height="6.242"/>
<rect x="370.898" y="44.681" fill="#F08723" width="6.242" height="6.242"/>
<path fill="#F08723" d="M362.849,34.826L362.849,34.826c-1.724,0-3.121-1.397-3.121-3.122c0-1.724,1.397-3.121,3.121-3.121
	c1.724,0,3.122,1.397,3.122,3.121C365.971,33.428,364.573,34.826,362.849,34.826"/>
<path fill="#F08723" d="M385.19,34.826L385.19,34.826c-1.724,0-3.121-1.397-3.121-3.122c0-1.724,1.397-3.121,3.121-3.121
	c1.724,0,3.121,1.397,3.121,3.121C388.311,33.428,386.913,34.826,385.19,34.826"/>
<rect x="378.345" y="44.681" fill="#F08723" width="6.242" height="6.242"/>
<rect x="385.792" y="44.681" fill="#F08723" width="6.242" height="6.242"/>
<rect x="399.482" y="44.681" fill="#F08723" width="6.242" height="6.242"/>
<rect x="393.239" y="22.34" fill="#F08723" width="6.242" height="6.242"/>
<rect x="393.239" y="29.787" fill="#F08723" width="6.242" height="6.242"/>
<rect x="393.239" y="37.234" fill="#F08723" width="6.242" height="6.242"/>
<path fill="#F08723" d="M380.235,37.315c0-3.316-2.688-6.003-6.003-6.003h-0.011c-3.316,0-6.003,2.688-6.003,6.003v0.011
	c0,3.316,2.688,6.003,6.003,6.003h0.011c3.316,0,6.003-2.688,6.003-6.003V37.315z M376.44,37.321c0,1.572-1.275,2.846-2.846,2.846
	c-1.572,0-2.846-1.275-2.846-2.846c0-1.572,1.275-2.846,2.846-2.846C375.165,34.474,376.44,35.749,376.44,37.321"/>
<rect x="454.635" y="167.959" fill="#F08723" width="6.242" height="6.242"/>
<rect x="462.082" y="167.959" fill="#F08723" width="6.242" height="6.242"/>
<rect x="476.976" y="167.959" fill="#F08723" width="6.242" height="6.242"/>
<rect x="372.723" y="167.959" fill="#F08723" width="6.242" height="6.242"/>
<rect x="372.723" y="175.406" fill="#F08723" width="6.242" height="6.242"/>
<rect x="380.17" y="160.512" fill="#F08723" width="6.242" height="6.242"/>
<rect x="387.613" y="153.069" fill="#F08723" width="6.242" height="6.242"/>
<rect x="395.06" y="160.515" fill="#F08723" width="6.242" height="6.242"/>
<rect x="402.507" y="160.515" fill="#F08723" width="6.242" height="6.242"/>
<rect x="387.613" y="145.622" fill="#F08723" width="6.242" height="6.242"/>
<rect x="395.06" y="145.622" fill="#F08723" width="6.242" height="6.242"/>
<rect x="402.507" y="145.622" fill="#F08723" width="6.242" height="6.242"/>
<rect x="409.954" y="145.622" fill="#F08723" width="6.242" height="6.242"/>
<rect x="417.401" y="145.622" fill="#F08723" width="6.242" height="6.242"/>
<rect x="424.848" y="145.622" fill="#F08723" width="6.242" height="6.242"/>
<rect x="424.848" y="153.069" fill="#F08723" width="6.242" height="6.242"/>
<rect x="424.848" y="160.515" fill="#F08723" width="6.242" height="6.242"/>
<rect x="432.295" y="160.515" fill="#F08723" width="6.242" height="6.242"/>
<rect x="439.742" y="160.515" fill="#F08723" width="6.242" height="6.242"/>
<rect x="439.742" y="167.959" fill="#F08723" width="6.242" height="6.242"/>
<rect x="439.742" y="175.403" fill="#F08723" width="6.242" height="6.242"/>
<rect x="432.295" y="175.403" fill="#F08723" width="6.242" height="6.242"/>
<rect x="424.848" y="175.403" fill="#F08723" width="6.242" height="6.242"/>
<rect x="417.401" y="175.403" fill="#F08723" width="6.242" height="6.242"/>
<rect x="409.954" y="175.403" fill="#F08723" width="6.242" height="6.242"/>
<rect x="402.507" y="175.403" fill="#F08723" width="6.242" height="6.242"/>
<rect x="395.06" y="175.403" fill="#F08723" width="6.242" height="6.242"/>
<rect x="387.613" y="175.403" fill="#F08723" width="6.242" height="6.242"/>
<path fill="#F08723" d="M396.048,189.123c0-3.316-2.688-6.003-6.003-6.003h-0.011c-3.316,0-6.003,2.688-6.003,6.003v0.011
	c0,3.316,2.688,6.003,6.003,6.003h0.011c3.316,0,6.003-2.688,6.003-6.003V189.123z M392.253,189.129
	c0,1.572-1.275,2.846-2.846,2.846c-1.572,0-2.846-1.275-2.846-2.846c0-1.572,1.274-2.846,2.846-2.846
	C390.978,186.282,392.253,187.557,392.253,189.129"/>
<path fill="#F08723" d="M433.368,189.123c0-3.316-2.688-6.003-6.003-6.003h-0.011c-3.316,0-6.003,2.688-6.003,6.003v0.011
	c0,3.316,2.688,6.003,6.003,6.003h0.011c3.316,0,6.003-2.688,6.003-6.003V189.123z M429.572,189.129
	c0,1.572-1.275,2.846-2.846,2.846c-1.572,0-2.846-1.275-2.846-2.846c0-1.572,1.274-2.846,2.846-2.846
	C428.298,186.282,429.572,187.557,429.572,189.129"/>
<rect x="380.167" y="175.403" fill="#F08723" width="6.242" height="6.242"/>
<path fill="#F08723" d="M244.24,225.81c0-3.316-2.688-6.003-6.003-6.003h-0.011c-3.316,0-6.003,2.688-6.003,6.003v0.011
	c0,3.316,2.688,6.003,6.003,6.003h0.011c3.316,0,6.003-2.688,6.003-6.003V225.81z M240.445,225.816c0,1.572-1.275,2.846-2.846,2.846
	c-1.572,0-2.846-1.275-2.846-2.846s1.274-2.846,2.846-2.846C239.17,222.969,240.445,224.244,240.445,225.816"/>
<rect x="231.185" y="233.433" fill="#F08723" width="6.242" height="6.242"/>
<rect x="238.629" y="233.433" fill="#F08723" width="6.242" height="6.242"/>
<rect x="223.737" y="240.881" fill="#F08723" width="6.242" height="6.242"/>
<rect x="223.737" y="248.328" fill="#F08723" width="6.242" height="6.242"/>
<rect x="223.737" y="255.775" fill="#F08723" width="6.242" height="6.242"/>
<rect x="223.737" y="263.222" fill="#F08723" width="6.242" height="6.242"/>
<rect x="223.737" y="240.881" fill="#F08723" width="6.242" height="6.242"/>
<rect x="223.737" y="248.328" fill="#F08723" width="6.242" height="6.242"/>
<rect x="223.737" y="255.775" fill="#F08723" width="6.242" height="6.242"/>
<rect x="223.737" y="263.222" fill="#F08723" width="6.242" height="6.242"/>
<rect x="231.182" y="263.222" fill="#F08723" width="6.242" height="6.242"/>
<rect x="238.627" y="263.222" fill="#F08723" width="6.242" height="6.242"/>
<rect x="246.075" y="240.881" fill="#F08723" width="6.242" height="6.242"/>
<rect x="246.075" y="248.328" fill="#F08723" width="6.242" height="6.242"/>
<rect x="246.075" y="255.775" fill="#F08723" width="6.242" height="6.242"/>
<rect x="246.075" y="263.222" fill="#F08723" width="6.242" height="6.242"/>
<path fill="#F08723" d="M266.379,225.81c0-3.316-2.688-6.003-6.003-6.003h-0.011c-3.316,0-6.003,2.688-6.003,6.003v0.011
	c0,3.316,2.688,6.003,6.003,6.003h0.011c3.316,0,6.003-2.688,6.003-6.003V225.81z M263.849,225.816c0,1.572-1.275,2.846-2.846,2.846
	c-1.572,0-2.846-1.275-2.846-2.846s1.274-2.846,2.846-2.846C262.574,222.969,263.849,224.244,263.849,225.816"/>
<rect x="253.796" y="233.433" fill="#F08723" width="6.242" height="6.242"/>
<rect x="261.24" y="233.433" fill="#F08723" width="6.242" height="6.242"/>
<rect x="246.348" y="240.881" fill="#F08723" width="6.242" height="6.242"/>
<rect x="246.348" y="248.328" fill="#F08723" width="6.242" height="6.242"/>
<rect x="246.348" y="255.775" fill="#F08723" width="6.242" height="6.242"/>
<rect x="246.348" y="263.222" fill="#F08723" width="6.242" height="6.242"/>
<rect x="246.348" y="263.222" fill="#F08723" width="6.242" height="6.242"/>
<rect x="253.793" y="263.222" fill="#F08723" width="6.242" height="6.242"/>
<rect x="261.238" y="263.222" fill="#F08723" width="6.242" height="6.242"/>
<rect x="268.684" y="240.881" fill="#F08723" width="6.242" height="6.242"/>
<rect x="268.684" y="248.328" fill="#F08723" width="6.242" height="6.242"/>
<rect x="268.684" y="255.775" fill="#F08723" width="6.242" height="6.242"/>
<rect x="268.684" y="263.222" fill="#F08723" width="6.242" height="6.242"/>
<rect x="303.783" y="156.093" fill="#F08723" width="6.242" height="6.242"/>
<rect x="303.783" y="148.647" fill="#F08723" width="6.242" height="6.242"/>
<rect x="303.783" y="141.2" fill="#F08723" width="6.242" height="6.242"/>
<rect x="303.783" y="133.753" fill="#F08723" width="6.242" height="6.242"/>
<rect x="303.783" y="126.306" fill="#F08723" width="6.242" height="6.242"/>
<rect x="316.681" y="148.646" transform="matrix(0.5 -0.866 0.866 0.5 28.4589 352.8297)" fill="#F08723" width="6.243" height="6.242"/>
<rect x="310.232" y="144.923" transform="matrix(0.5 -0.866 0.866 0.5 28.4591 345.383)" fill="#F08723" width="6.243" height="6.242"/>
<rect x="297.334" y="137.476" transform="matrix(0.5 -0.866 0.866 0.5 28.4594 330.4898)" fill="#F08723" width="6.243" height="6.242"/>
<rect x="290.884" y="133.753" transform="matrix(0.5 -0.866 0.866 0.5 28.4595 323.0432)" fill="#F08723" width="6.243" height="6.242"/>
<rect x="316.681" y="133.753" transform="matrix(-0.5 -0.866 0.866 -0.5 361.177 482.2666)" fill="#F08723" width="6.243" height="6.242"/>
<rect x="310.232" y="137.476" transform="matrix(-0.5 -0.866 0.866 -0.5 348.2785 482.2668)" fill="#F08723" width="6.243" height="6.242"/>
<rect x="297.334" y="144.923" transform="matrix(-0.5 -0.866 0.866 -0.5 322.4818 482.2672)" fill="#F08723" width="6.243" height="6.242"/>
<rect x="290.884" y="148.646" transform="matrix(-0.5 -0.866 0.866 -0.5 309.5833 482.2674)" fill="#F08723" width="6.243" height="6.242"/>
<rect x="264.406" y="73.879" transform="matrix(-0.7072 -0.7071 0.7071 -0.7072 402.265 320.6085)" fill="#F08723" width="6.242" height="6.242"/>
<rect x="269.671" y="79.144" transform="matrix(-0.7072 -0.7071 0.7071 -0.7072 407.5312 333.3211)" fill="#F08723" width="6.242" height="6.242"/>
<rect x="274.937" y="84.41" transform="matrix(-0.7072 -0.7071 0.7071 -0.7072 412.7974 346.0336)" fill="#F08723" width="6.242" height="6.242"/>
<rect x="274.937" y="73.879" transform="matrix(-0.7072 -0.7071 0.7071 -0.7072 420.2438 328.0549)" fill="#F08723" width="6.242" height="6.242"/>
<rect x="264.406" y="84.41" transform="matrix(-0.7072 -0.7071 0.7071 -0.7072 394.8186 338.5872)" fill="#F08723" width="6.242" height="6.242"/>
<rect x="287.453" y="73.878" transform="matrix(-0.7071 -0.7071 0.7071 -0.7071 441.5914 336.9148)" fill="#F08723" width="6.242" height="6.243"/>
<rect x="292.719" y="79.144" transform="matrix(-0.7071 -0.7071 0.7071 -0.7071 446.8571 349.6273)" fill="#F08723" width="6.242" height="6.243"/>
<rect x="297.984" y="84.41" transform="matrix(-0.7071 -0.7071 0.7071 -0.7071 452.1227 362.3399)" fill="#F08723" width="6.242" height="6.243"/>
<rect x="297.984" y="73.878" transform="matrix(-0.7071 -0.7071 0.7071 -0.7071 459.5696 344.3617)" fill="#F08723" width="6.242" height="6.243"/>
<rect x="287.453" y="84.41" transform="matrix(-0.7072 -0.7071 0.7071 -0.7072 434.1631 354.8828)" fill="#F08723" width="6.242" height="6.242"/>
<rect x="251.276" y="79.144" fill="#F08723" width="6.242" height="6.242"/>
<rect x="243.829" y="79.144" fill="#F08723" width="6.242" height="6.242"/>
<rect x="236.382" y="79.144" fill="#F08723" width="6.242" height="6.242"/>
<rect x="228.935" y="79.144" fill="#F08723" width="6.242" height="6.242"/>
<rect x="221.489" y="79.144" fill="#F08723" width="6.242" height="6.242"/>
<rect x="214.042" y="79.144" fill="#F08723" width="6.242" height="6.242"/>
<rect x="206.595" y="79.144" fill="#F08723" width="6.242" height="6.242"/>
<rect x="199.148" y="79.144" fill="#F08723" width="6.242" height="6.242"/>
<rect x="247.552" y="88.824" fill="#F08723" width="6.242" height="6.242"/>
<rect x="240.106" y="88.824" fill="#F08723" width="6.242" height="6.242"/>
<rect x="232.658" y="88.824" fill="#F08723" width="6.242" height="6.242"/>
<rect x="225.212" y="88.824" fill="#F08723" width="6.242" height="6.242"/>
<rect x="217.765" y="88.824" fill="#F08723" width="6.242" height="6.242"/>
<rect x="210.318" y="88.824" fill="#F08723" width="6.242" height="6.242"/>
<rect x="202.871" y="88.824" fill="#F08723" width="6.242" height="6.242"/>
<rect x="195.424" y="88.824" fill="#F08723" width="6.242" height="6.242"/>
<rect x="1.293" y="251.397" transform="matrix(-0.7071 -0.7071 0.7071 -0.7071 -172.4381 437.6103)" fill="#F08723" width="6.243" height="6.243"/>
<rect x="6.558" y="256.663" transform="matrix(-0.7071 -0.7071 0.7071 -0.7071 -167.1724 450.3229)" fill="#F08723" width="6.243" height="6.243"/>
<rect x="11.824" y="261.929" transform="matrix(-0.7071 -0.7071 0.7071 -0.7071 -161.9068 463.0354)" fill="#F08723" width="6.243" height="6.243"/>
<rect x="11.824" y="251.397" transform="matrix(-0.7071 -0.7071 0.7071 -0.7071 -154.4598 445.0572)" fill="#F08723" width="6.243" height="6.243"/>
<rect x="1.293" y="261.929" transform="matrix(-0.7071 -0.7071 0.7071 -0.7071 -179.8847 455.5889)" fill="#F08723" width="6.242" height="6.243"/>
<rect x="24.339" y="251.397" transform="matrix(-0.7071 -0.7071 0.7071 -0.7071 -133.0948 453.907)" fill="#F08723" width="6.243" height="6.243"/>
<rect x="29.605" y="256.663" transform="matrix(-0.7071 -0.7071 0.7071 -0.7071 -127.8291 466.6196)" fill="#F08723" width="6.243" height="6.243"/>
<rect x="34.871" y="261.929" transform="matrix(-0.7071 -0.7071 0.7071 -0.7071 -122.5634 479.3322)" fill="#F08723" width="6.243" height="6.243"/>
<rect x="34.871" y="251.397" transform="matrix(-0.7071 -0.7071 0.7071 -0.7071 -115.1165 461.3539)" fill="#F08723" width="6.243" height="6.243"/>
<rect x="24.34" y="261.929" transform="matrix(-0.7072 -0.7071 0.7071 -0.7072 -140.5269 471.8974)" fill="#F08723" width="6.242" height="6.242"/>
</svg>
